# xmcd
#
# Track frame offsets:
#	150
#	10265
#	21948
#	30995
#	43420
#	53953
#	66383
#	78203
#	89520
#	99598
#	110305
#	118813
#	131685
#	143428
#	154453
#	166285
#	176805
#	186633
#	197110
#	208125
#	218595
#	226830
#	243115
#	251233
#	263995
#
# Disc length: 3692 seconds
#
# Revision: 0
# Processed by: cddbd v1.5.1PL0 Copyright (c) Steve Scherf et al.
# Submitted via: EasyCDDAExtractor 4.6.9.1
#
DISCID=6d0e6a19
DTITLE=Chuck Willis - Stroll On: The Chuck Willis Collection
DYEAR=1900
DGENRE=Blues
TTITLE0=There's Got To Be A Way
TTITLE1=It's Too Late
TTITLE2=Kansas City Woman
TTITLE3=My Life
TTITLE4=Ease The Pain
TTITLE5=Whatcha Gonna Do When Your Baby Leaves You
TTITLE6=Juanita
TTITLE7=C.C. Rider
TTITLE8=Just One Kiss
TTITLE9=Love Me Cherry
TTITLE10=My Baby
TTITLE11=That Train Is Gone
TTITLE12=My Crying Eyes
TTITLE13=Betty And Dupree
TTITLE14=Thunder And Lightning
TTITLE15=From The Bottom Of My Heart
TTITLE16=You'll Be My Love
TTITLE17=Keep A-Drivin'
TTITLE18=What Am I Living For
TTITLE19=Hang Up My Rock and Roll Shoes
TTITLE20=Big Drops Of Rain
TTITLE21=I'll Be So Glad When Your Heart Is Mine
TTITLE22=Sugar Sugar
TTITLE23=Stop And Think
TTITLE24=Love Of Loves
EXTD=
EXTT0=
EXTT1=
EXTT2=
EXTT3=
EXTT4=
EXTT5=
EXTT6=
EXTT7=
EXTT8=
EXTT9=
EXTT10=
EXTT11=
EXTT12=
EXTT13=
EXTT14=
EXTT15=
EXTT16=
EXTT17=
EXTT18=
EXTT19=
EXTT20=
EXTT21=
EXTT22=
EXTT23=
EXTT24=
PLAYORDER=
